HIERARCHY
ROOT Hip
{
	OFFSET 0 1.131 0.0052
	CHANNELS 6 Xposition Yposition Zposition Xrotation Yrotation Zrotation
	JOINT Abdomen
	{
		OFFSET 0 -0.047353 -0.05
		CHANNELS 3 Xrotation Zrotation Yrotation
		JOINT Chest
		{
			OFFSET 0 0.132153 0.007439
			CHANNELS 3 Xrotation Zrotation Yrotation
			JOINT Neck
			{
				OFFSET 0 0.3078 0.006161
				CHANNELS 3 Xrotation Zrotation Yrotation
				JOINT Head_comp
				{
					OFFSET 0 0.0884 0.013
					CHANNELS 3 Xrotation Yrotation Zrotation
					End Site
					{
						OFFSET -0 0.156 0.0624
					}
				}
			}
			JOINT Left_Collar
			{
				OFFSET 0.02282 0.250342 0.017193
				CHANNELS 2 Yrotation Zrotation
				JOINT Left_Shoulder
				{
					OFFSET 0.15421 0 0
					CHANNELS 3 Xrotation Yrotation Zrotation
					JOINT Left_Forearm
					{
						OFFSET 0.265212 0 0
						CHANNELS 2 Yrotation Xrotation
						JOINT Left_Hand
						{
							OFFSET 0.27571 0 0
							CHANNELS 2 Zrotation Yrotation
							JOINT L1ProxPhalanx
							{
								OFFSET 0.014142 0.001733 0.014142
								CHANNELS 3 Yrotation Zrotation Xrotation
								JOINT L1MidPhalanx
								{
									OFFSET 0.04 0 0
									CHANNELS 1 Zrotation
									JOINT L1DistPhalanx
									{
										OFFSET 0.035 0 0
										CHANNELS 1 Zrotation
										End Site
										{
											OFFSET 0.029 -0 -0
										}
									}
								}
							}
							JOINT L2ProxPhalanx
							{
								OFFSET 0.0821037 0.001578 0.0219996
								CHANNELS 2 Yrotation Zrotation
								JOINT L2MidPhalanx
								{
									OFFSET 0.04 0 0
									CHANNELS 1 Zrotation
									JOINT L2DistPhalanx
									{
										OFFSET 0.028 0 0
										CHANNELS 1 Zrotation
										End Site
										{
											OFFSET 0.02 -0 -0
										}
									}
								}
							}
							JOINT L3ProxPhalanx
							{
								OFFSET 0.083 0 0
								CHANNELS 2 Yrotation Zrotation
								JOINT L3MidPhalanx
								{
									OFFSET 0.053 0 0
									CHANNELS 1 Zrotation
									JOINT L3DistPhalanx
									{
										OFFSET 0.03 0 0
										CHANNELS 1 Zrotation
										End Site
										{
											OFFSET 0.023 -0 -0
										}
									}
								}
							}
							JOINT L4ProxPhalanx
							{
								OFFSET 0.077274 -0.000761 -0.0207055
								CHANNELS 2 Yrotation Zrotation
								JOINT L4MidPhalanx
								{
									OFFSET 0.05 0 0
									CHANNELS 1 Zrotation
									JOINT L4DistPhalanx
									{
										OFFSET 0.03 0 0
										CHANNELS 1 Zrotation
										End Site
										{
											OFFSET 0.023 -0 -0
										}
									}
								}
							}
							JOINT L5ProxPhalanx
							{
								OFFSET 0.0675499 -0.001644 -0.039
								CHANNELS 2 Yrotation Zrotation
								JOINT L5MidPhalanx
								{
									OFFSET 0.04 0 0
									CHANNELS 1 Zrotation
									JOINT L5DistPhalanx
									{
										OFFSET 0.021 0 0
										CHANNELS 1 Zrotation
										End Site
										{
											OFFSET 0.022 -0 -0
										}
									}
								}
							}
						}
					}
				}
			}
			JOINT Right_Collar
			{
				OFFSET -0.02282 0.250342 0.017193
				CHANNELS 2 Yrotation Zrotation
				JOINT Right_Shoulder
				{
					OFFSET -0.15421 0 0
					CHANNELS 3 Xrotation Yrotation Zrotation
					JOINT Right_Forearm
					{
						OFFSET -0.265212 0 0
						CHANNELS 2 Yrotation Xrotation
						JOINT Right_Hand
						{
							OFFSET -0.27571 3e-006 0
							CHANNELS 2 Zrotation Yrotation
							JOINT R1ProxPhalanx
							{
								OFFSET -0.014142 0.001733 0.014142
								CHANNELS 3 Yrotation Zrotation Xrotation
								JOINT R1MidPhalanx
								{
									OFFSET -0.04 0 0
									CHANNELS 1 Zrotation
									JOINT R1DistPhalanx
									{
										OFFSET -0.035 0 0
										CHANNELS 1 Zrotation
										End Site
										{
											OFFSET -0.029 -0 -0
										}
									}
								}
							}
							JOINT R2ProxPhalanx
							{
								OFFSET -0.0821037 0.001578 0.0219996
								CHANNELS 2 Yrotation Zrotation
								JOINT R2MidPhalanx
								{
									OFFSET -0.04 0 0
									CHANNELS 1 Zrotation
									JOINT R2DistPhalanx
									{
										OFFSET -0.028 0 0
										CHANNELS 1 Zrotation
										End Site
										{
											OFFSET -0.02 -0 -0
										}
									}
								}
							}
							JOINT R3ProxPhalanx
							{
								OFFSET -0.083 0 0
								CHANNELS 2 Yrotation Zrotation
								JOINT R3MidPhalanx
								{
									OFFSET -0.053 0 0
									CHANNELS 1 Zrotation
									JOINT R3DistPhalanx
									{
										OFFSET -0.03 0 0
										CHANNELS 1 Zrotation
										End Site
										{
											OFFSET -0.023 -0 -0
										}
									}
								}
							}
							JOINT R4ProxPhalanx
							{
								OFFSET -0.077274 -0.000761 -0.0207055
								CHANNELS 2 Yrotation Zrotation
								JOINT R4MidPhalanx
								{
									OFFSET -0.05 0 0
									CHANNELS 1 Zrotation
									JOINT R4DistPhalanx
									{
										OFFSET -0.03 0 0
										CHANNELS 1 Zrotation
										End Site
										{
											OFFSET -0.023 -0 -0
										}
									}
								}
							}
							JOINT R5ProxPhalanx
							{
								OFFSET -0.0675499 -0.001644 -0.039
								CHANNELS 2 Yrotation Zrotation
								JOINT R5MidPhalanx
								{
									OFFSET -0.04 0 0
									CHANNELS 1 Zrotation
									JOINT R5DistPhalanx
									{
										OFFSET -0.021 0 0
										CHANNELS 1 Zrotation
										End Site
										{
											OFFSET -0.022 -0 -0
										}
									}
								}
							}
						}
					}
				}
			}
		}
	}
	JOINT Left_Thigh
	{
		OFFSET 0.1118 -0.1612 -0.0442
		CHANNELS 3 Xrotation Zrotation Yrotation
		JOINT Left_Shin
		{
			OFFSET 0 -0.477856 0
			CHANNELS 1 Xrotation
			JOINT Left_Foot
			{
				OFFSET 0 -0.431952 0
				CHANNELS 2 Xrotation Zrotation
				JOINT Left_Toe
				{
					OFFSET 0 -0.0442 0.119
					CHANNELS 1 Xrotation
					End Site
					{
						OFFSET -0 -0 0.07
					}
				}
			}
		}
	}
	JOINT Right_Thigh
	{
		OFFSET -0.1118 -0.1612 -0.0442
		CHANNELS 3 Xrotation Zrotation Yrotation
		JOINT Right_Shin
		{
			OFFSET 0 -0.477856 0
			CHANNELS 1 Xrotation
			JOINT Right_Foot
			{
				OFFSET 0 -0.431952 0
				CHANNELS 2 Xrotation Zrotation
				JOINT Right_Toe
				{
					OFFSET 0 -0.0442 0.119
					CHANNELS 1 Xrotation
					End Site
					{
						OFFSET -0 -0 0.07
					}
				}
			}
		}
	}
}
MOTION
Frames: 5
Frame Time: 0.009975
-0.0958209 -0.0601937 0.0495692 3.89283e-014 5.9432e-008 -5.10976e-006 0 -0 0 0 -0 0 0 -0 0 -0.713106 0.275369 8.20057e-013 3.70079 -45.1739 -7.28695 -11.1658 -28.451 -47.2803 6.90895 28.3764 3.10778 -66.8006 -58.2592 87.5136 -6.37135 -3.25446 1.66335 -2.18108 1.1772 -0.837664 -0.10107 1.0881 -3.49172 -4.66376 0.116425 1.94496 -14.7703 -1.17834 9.70482 4.88968 -69.6672 43.2145 -9.1642 23.1923 -4.3808 13.0848 35.277 59.3747 3.34448 -39.9718 -11.1066 94.6379 60.215 59.4674 3.81484 -0.116791 -7.24662 -0.125054 -0.576634 6.20772 -4.75952 -1.43785 -3.95478 -0.879691 -6.87517 -2.51686 5.79956 -3.10898 -12.0943 -5.18972 38.9328 -31.9065 0.654314 -1.00634 -0.0114923 0.0240216 -0.678234 1.00642 0 0.66572 -1.00634 -0.0116927 8.49505e-007 -0.665618 1.00642 0 
-0.0957622 -0.0601946 0.0495503 6.44719e-013 5.93136e-008 -5.10977e-006 0 -0 0 0 -0 0 0 -0 0 -0.713107 0.275197 8.17106e-014 3.70079 -45.1739 -7.28695 -11.1658 -28.451 -47.2803 6.90895 28.3764 3.10778 -66.8006 -58.2592 87.5136 -6.37135 -3.25446 1.66335 -2.18108 1.1772 -0.837664 -0.10107 1.0881 -3.49172 -4.66376 0.116425 1.94496 -14.7703 -1.17834 9.70482 4.88968 -69.6672 43.2145 -9.16498 23.1264 -4.75667 12.996 35.2408 59.2787 3.41586 -39.9849 -11.1728 95.01 60.3126 58.76 3.82233 -0.193419 -7.26601 -0.101721 -0.711584 6.14635 -4.72411 -1.42249 -3.98147 -0.855671 -6.66934 -2.51768 5.85046 -3.14985 -12.0233 -5.19226 38.748 -31.4398 0.653122 -1.01004 -0.0115135 0.0240216 -0.677042 1.01011 0 0.664528 -1.01004 -0.0117146 1.70755e-006 -0.664427 1.01011 0 
-0.095703 -0.0601954 0.04953 -1.07291e-012 5.91534e-008 -5.10978e-006 0 -0 0 0 -0 0 0 -0 0 -0.713107 0.275038 4.26299e-014 3.70079 -45.1739 -7.28695 -11.1658 -28.451 -47.2803 6.90895 28.3764 3.10778 -66.8006 -58.2592 87.5136 -6.37135 -3.25446 1.66335 -2.18108 1.1772 -0.837664 -0.10107 1.0881 -3.49172 -4.66376 0.116425 1.94496 -14.7703 -1.17834 9.70482 4.88968 -69.6672 43.2145 -9.14649 23.0733 -5.19141 12.8334 35.218 59.1696 3.52193 -39.9816 -11.2201 95.4379 60.4803 57.9335 3.84228 -0.335795 -7.26023 -0.0816164 -0.86976 6.084 -4.65951 -1.40387 -4.09407 -0.858693 -6.37251 -2.52149 5.83812 -3.04149 -11.8778 -5.19697 38.292 -30.9017 0.651848 -1.01377 -0.0115335 0.0240216 -0.675768 1.01384 0 0.663255 -1.01377 -0.0117353 1.70755e-006 -0.663153 1.01384 0 
-0.0956449 -0.0601961 0.0495077 -8.40319e-013 5.90278e-008 -5.10979e-006 0 -0 0 0 -0 0 0 -0 0 -0.713108 0.274872 4.11007e-013 3.70079 -45.1739 -7.28695 -11.1658 -28.451 -47.2803 6.90895 28.3764 3.10778 -66.8006 -58.2592 87.5136 -6.37135 -3.25446 1.66335 -2.18108 1.1772 -0.837664 -0.10107 1.0881 -3.49172 -4.66376 0.116425 1.94496 -14.7703 -1.17834 9.70482 4.88968 -69.6672 43.2145 -9.11785 23.0295 -5.63122 12.671 35.1943 59.0394 3.62959 -39.9514 -11.278 95.864 60.6407 57.3655 3.89548 -0.513214 -7.26844 -0.062363 -0.973784 5.99932 -4.6108 -1.38279 -4.16172 -0.927113 -6.07024 -2.52531 5.90341 -3.06996 -11.7186 -5.20174 38.1264 -30.9647 0.650439 -1.01743 -0.0115501 0.0240216 -0.674358 1.0175 0 0.661846 -1.01742 -0.0117526 1.70755e-006 -0.661743 1.0175 0 
-0.0955856 -0.0601969 0.0494848 -4.14426e-013 5.88997e-008 -5.1098e-006 0 -0 0 0 -0 0 0 -0 0 -0.713109 0.274706 1.89292e-013 3.70079 -45.1739 -7.28695 -11.1658 -28.451 -47.2803 6.90895 28.3764 3.10778 -66.8006 -58.2592 87.5136 -6.37135 -3.25446 1.66335 -2.18108 1.1772 -0.837664 -0.10107 1.0881 -3.49172 -4.66376 0.116425 1.94496 -14.7703 -1.17834 9.70482 4.88968 -69.6672 43.2145 -9.09776 22.9896 -6.06285 12.545 35.1499 58.8747 3.73885 -39.8906 -11.3591 96.136 60.7367 56.9081 3.8337 -0.403248 -7.32025 -0.0420322 -1.05615 5.93143 -4.65642 -1.36243 -4.2251 -0.854158 -5.83114 -2.52487 5.91002 -3.06468 -11.5861 -5.21228 37.9746 -30.6172 0.649002 -1.02117 -0.0115669 0.0240216 -0.672921 1.02124 0 0.660409 -1.02116 -0.0117702 1.70755e-006 -0.660306 1.02124 0 
